mtllib model_0.mtl
o model_0
v -10000 9999.9599609375 -10000 
v 9999.9599609375 9999.9599609375 -10000 
v -10000 9999.9599609375 9999.9599609375 
v 9999.9599609375 9999.9599609375 9999.9599609375 
v 9999.9599609375 9999.9599609375 -10000 
v 9999.9599609375 -10000 -10000 
v 9999.9599609375 -10000 9999.9599609375 
v -10000 9999.9599609375 9999.9599609375 
v -10000 -10000 9999.9599609375 
v 9999.9599609375 -10000 -10000 
v -10000 -10000 -10000 
v -10000 -10000 9999.9599609375 
v 9999.9599609375 9999.9599609375 -10000 
v -10000 -10000 -10000 
v -10000 9999.9599609375 -10000 
v -10000 9999.9599609375 -10000 
v -10000 -10000 9999.9599609375 
v -10000 9999.9599609375 9999.9599609375 
vn 0.5786608457565308 -0.5773276686668396 0.5760593414306641 
vn -0.5759913921356201 -0.5799909830093384 0.5760593414306641 
vn 0.5779946446418762 -0.5779946446418762 -0.5760593414306641 
vn -0.5779946446418762 -0.5779946446418762 -0.5760593414306641 
vn -0.5759913921356201 -0.5799909830093384 0.5760593414306641 
vn -0.5759913921356201 0.5799909830093384 0.5760593414306641 
vn -0.5779946446418762 0.5779946446418762 -0.5760593414306641 
vn 0.5779946446418762 -0.5779946446418762 -0.5760593414306641 
vn 0.5779946446418762 0.5779946446418762 -0.5760593414306641 
vn -0.5759913921356201 0.5799909830093384 0.5760593414306641 
vn 0.5786608457565308 0.5773276686668396 0.5760593414306641 
vn 0.5779946446418762 0.5779946446418762 -0.5760593414306641 
vn -0.5759913921356201 -0.5799909830093384 0.5760593414306641 
vn 0.5786608457565308 0.5773276686668396 0.5760593414306641 
vn 0.5786608457565308 -0.5773276686668396 0.5760593414306641 
vn 0.5786608457565308 -0.5773276686668396 0.5760593414306641 
vn 0.5779946446418762 0.5779946446418762 -0.5760593414306641 
vn 0.5779946446418762 -0.5779946446418762 -0.5760593414306641 
vt 0.49952343106269836 0.999915599822998 
vt 0.49952343106269836 0.6666781306266785 
vt 0.25008252263069153 0.999915599822998 
vt 0.25008252263069153 0.6666781306266785 
vt 0.5000113248825073 0.6666781306266785 
vt 0.5000113248825073 0.3333186209201813 
vt 0.25008252263069153 0.3333186209201813 
vt 0.0005196239799261093 0.6666781306266785 
vt 0.0005196239799261093 0.3333186209201813 
vt 0.4996454119682312 0.3333186209201813 
vt 0.4996454119682312 0.00008116880053421482 
vt 0.25008252263069153 0.00008116880053421482 
vt 0.5000113248825073 0.6665560603141785 
vt 0.7481105327606201 0.3333186209201813 
vt 0.7481105327606201 0.6665560603141785 
vt 0.7481105327606201 0.6665560603141785 
vt 0.999625027179718 0.3333186209201813 
vt 0.999625027179718 0.6665560603141785 
s on 
f 1/1/1 2/2/2 3/3/3 
f 2/2/2 4/4/4 3/3/3 
f 3/3/3 4/4/4 4/4/4 
f 4/4/4 5/5/5 4/4/4 
f 4/4/4 5/5/5 5/5/5 
f 5/5/5 6/6/6 5/5/5 
f 5/5/5 6/6/6 4/4/4 
f 6/6/6 7/7/7 4/4/4 
f 4/4/4 7/7/7 8/8/8 
f 7/7/7 9/9/9 8/8/8 
f 8/8/8 9/9/9 9/9/9 
f 9/9/9 10/10/10 9/9/9 
f 9/9/9 10/10/10 10/10/10 
f 10/10/10 11/11/11 10/10/10 
f 10/10/10 11/11/11 7/7/7 
f 11/11/11 12/12/12 7/7/7 
f 7/7/7 12/12/12 12/12/12 
f 12/12/12 6/6/6 12/12/12 
f 12/12/12 6/6/6 6/6/6 
f 6/6/6 13/13/13 6/6/6 
f 6/6/6 13/13/13 14/14/14 
f 13/13/13 15/15/15 14/14/14 
f 14/14/14 15/15/15 15/15/15 
f 15/15/15 14/14/14 15/15/15 
f 15/15/15 14/14/14 14/14/14 
f 14/14/14 16/16/16 14/14/14 
f 14/14/14 16/16/16 17/17/17 
f 16/16/16 18/18/18 17/17/17 

